<?xml version="1.0" encoding="UTF-8"?><svg width="596.000mm" height="308.000mm" viewBox="119.000000 76.000000 596.000000 308.000000"><g transform="matrix(3.106470 0.000000 0.000000 3.106470 163.059998 113.262001)"><path style="stroke:#000000;stroke-width:0.1mm;fill:none" d="M149.334534,-0.000175L143.492172,0.617538L137.650177,1.234543L131.807831,1.852257L126.243813,2.439980L126.860817,8.282337L121.018478,8.899700L120.401123,3.057343L114.837097,3.645424L108.995102,4.262787L103.152748,4.880508L97.310745,5.497513L97.927757,11.339867L98.515846,16.904228L99.133202,22.746227L99.750565,28.588581L100.368271,34.430931L100.956001,39.994946L95.113297,40.612305L89.549637,41.200035L83.707634,41.817749L83.089920,35.975391L82.502197,30.411385L81.884125,24.569027L81.267120,18.727028L80.679390,13.162666L74.837036,13.780025L74.219681,7.937675L68.655670,8.526112L62.812962,9.143116L56.970608,9.760834L51.128609,10.377838L51.745968,16.220192L46.181602,16.808270L45.564598,10.965916L39.722240,11.583633L33.880241,12.200638L28.037533,12.818356L22.473532,13.406433L16.909519,13.993809L11.067520,14.611526L5.224810,15.228889L5.842171,21.071236L0.000172,21.688599L0.587895,27.252609L1.205256,33.094963L1.822617,38.937317L2.410706,44.501328L3.028067,50.343681L3.645428,56.186035L4.262789,62.028034L10.105144,61.410675L10.693221,66.974686L16.535576,66.357674L17.123299,71.921333L22.965652,71.303970L28.530020,70.715889L34.094032,70.128166L39.936031,69.510803L45.778374,68.893440L51.620731,68.276077L57.463085,67.658363L63.027096,67.070633L68.869453,66.453278L74.711449,65.835564L80.275810,65.247833L86.118164,64.630478L91.960518,64.013115L97.524170,63.425034L103.366539,62.807671L109.209244,62.190308L115.051239,61.572948L120.893593,60.955238L126.457603,60.367508L132.299606,59.750149L131.711868,54.185783L137.275879,53.598061L137.863953,59.162064L143.706314,58.544704L149.549026,57.927341L155.391022,57.309982L160.954681,56.721905L160.366959,51.157890L159.778870,45.593880L159.161499,39.751526L158.544144,33.909176L157.926788,28.066822L157.338699,22.502808L156.721344,16.660809L156.103989,10.818455L155.515900,5.254089L149.951889,5.842178L149.334534,-0.000175z"/><path style="stroke:#000000;stroke-width:0.1mm;fill:none" d="M128.066620,19.688705L127.449257,13.846706L133.291260,13.228989L132.703171,7.664978L138.267548,7.076897L144.109894,6.459534L144.697617,12.023548L145.314972,17.865898L145.932693,23.708252L146.549698,29.550606L147.137787,35.114616L147.755157,40.956615L148.372513,46.799324L142.530518,47.416687L136.966507,48.004410L136.348785,42.162411L135.731430,36.320057L135.143692,30.755695L134.525986,24.913696L128.683990,25.531059L129.271713,31.095066L123.429352,31.712425L122.841629,26.148418L117.277618,26.736141L117.865692,32.300507L118.483063,38.142509L119.100418,43.984863L119.717781,49.827213L113.875427,50.444931L108.032722,51.061935L107.415710,45.219585L106.797997,39.377583L106.180977,33.535229L105.592911,27.971218L104.975197,22.128864L104.358177,16.286510L103.770111,10.722504L109.612457,10.105145L115.454819,9.487782L116.042542,15.051788L121.606552,14.463711L122.224274,20.306065L128.066620,19.688705z"/><path style="stroke:#000000;stroke-width:0.1mm;fill:none" d="M61.233574,50.099915L60.616570,44.257561L60.028133,38.693897L59.410774,32.851547L58.793762,27.009193L58.176048,21.166843L57.588326,15.602833L63.430325,14.985470L69.272675,14.368111L69.860756,19.932121L70.478470,25.774471L71.095474,31.616474L71.713188,37.459175L72.300919,43.022835L72.918274,48.865189L78.482643,48.277466L84.324997,47.660103L90.167000,47.042385L95.730659,46.454659L96.348358,52.296658L90.784363,52.884743L84.942009,53.502449L79.100006,54.119461L73.535995,54.707542L67.693291,55.325256L61.851292,55.942261L61.233574,50.099915z"/><path style="stroke:#000000;stroke-width:0.1mm;fill:none" d="M8.870421,49.725964L8.282688,44.162308L7.665327,38.319954L7.047966,32.477604L6.430249,26.635250L12.272604,26.017540L11.684525,20.453876L17.526880,19.836514L23.091236,19.248436L28.933237,18.631077L34.497250,18.042992L40.339603,17.425632L40.927681,22.989643L46.770035,22.372639L47.387051,28.214634L41.545040,28.831997L35.703041,29.449356L35.085339,23.607361L29.242983,24.224365L23.678970,24.812443L18.114958,25.400528L18.732319,31.242882L19.349680,37.085232L19.967041,42.927231L20.555119,48.491241L21.172480,54.333595L26.736847,53.745518L32.578846,53.128510L38.142506,52.540428L37.525497,46.698074L36.907784,40.855721L31.344126,41.443802L30.756046,35.879440L36.320061,35.291359L42.162403,34.674351L48.004414,34.056637L48.622120,39.898987L49.209850,45.463352L49.827568,51.305710L50.444572,57.148056L44.602573,57.765068L43.985214,51.922714L38.142506,52.540428L38.760574,58.382778L33.196209,58.970505L27.353853,59.587868L21.789841,60.175949L15.947843,60.793312L15.329782,54.951313L9.487782,55.568321L8.870421,49.725964z"/></g><rect transform="translate(417.000000 230.000000)" style="stroke:#000000;stroke-width:0.1mm;fill:none" x="-298.000000" y="-154.000000" width="596.000000" height="308.000000"/></svg>
